<?xml version="1.0" standalone="no"?>
<!DOCTYPE svg PUBLIC "-//W3C//DTD SVG 20010904//EN"
 "http://www.w3.org/TR/2001/REC-SVG-20010904/DTD/svg10.dtd">
<svg version="1.0" xmlns="http://www.w3.org/2000/svg"
 width="1082.000000pt" height="1197.000000pt" viewBox="0 0 1082.000000 1197.000000"
 preserveAspectRatio="xMidYMid meet">

<g transform="translate(0.000000,1197.000000) scale(0.100000,-0.100000)"
fill="#000000" stroke="none">
<path d="M2955 11956 c-22 -7 -53 -20 -70 -29 -16 -9 -298 -225 -625 -479
-490 -382 -600 -471 -624 -511 -26 -43 -30 -61 -38 -165 -4 -64 -64 -661 -132
-1327 l-124 -1210 -127 -505 -126 -505 -534 -1057 c-296 -584 -539 -1078 -545
-1104 -12 -53 -1 -127 28 -181 9 -17 925 -1105 2035 -2417 1865 -2204 2022
-2387 2070 -2410 29 -14 73 -29 98 -32 97 -13 123 2 592 336 429 305 436 309
467 298 19 -6 63 -8 109 -5 l76 6 414 -311 c228 -171 432 -319 455 -329 61
-28 167 -25 232 5 46 22 246 243 2120 2351 1138 1280 2079 2346 2091 2369 18
32 22 58 23 124 l0 82 -500 1081 -500 1080 -114 512 -115 512 -100 1310 c-56
721 -105 1324 -110 1341 -14 51 -38 87 -83 130 -73 70 -1146 943 -1180 960
-43 22 -147 30 -200 15 -24 -7 -60 -25 -80 -39 -35 -26 -2121 -2357 -2178
-2433 -24 -34 -42 -86 -155 -462 -15 -49 -29 -87 -31 -84 -2 2 -34 114 -70
248 -37 134 -75 260 -85 279 -10 19 -490 591 -1066 1270 -979 1153 -1052 1237
-1103 1262 -67 33 -141 42 -195 24z m969 -1735 c512 -574 932 -1047 934 -1052
4 -10 -1743 -1835 -2025 -2117 -168 -167 -327 -304 -1181 -1014 -543 -451
-995 -828 -1005 -837 -23 -20 -46 -71 322 724 l292 630 185 601 c101 330 200
670 219 755 34 150 37 181 115 1224 88 1170 120 1500 148 1526 9 9 219 184
466 388 l449 371 75 -77 c41 -43 493 -548 1006 -1122z m4583 801 l450 -374 26
-231 c15 -128 63 -711 107 -1297 77 -1036 80 -1069 114 -1215 19 -82 116 -418
216 -745 l183 -595 309 -670 c171 -368 315 -679 321 -690 13 -25 146 -134
-1038 852 -949 790 -1023 854 -1220 1055 -206 208 -1959 2036 -1966 2050 -4 7
1797 2030 1935 2174 68 70 82 81 96 71 9 -7 219 -180 467 -385z m-3477 -2029
c0 -16 342 -1410 352 -1436 6 -17 26 -36 45 -45 30 -14 36 -14 67 1 43 20 22
-47 250 795 100 370 186 673 190 674 5 0 454 -465 998 -1033 830 -866 987
-1035 972 -1041 -11 -5 -426 -123 -924 -263 -752 -211 -908 -258 -925 -278
-18 -20 -26 -72 -62 -387 -41 -356 -46 -383 -188 -1075 -81 -390 -151 -731
-156 -757 l-11 -48 -226 0 -227 0 -133 763 c-128 733 -134 776 -167 1131 -32
351 -34 370 -57 392 -18 18 -234 89 -937 306 l-914 283 1019 1012 c560 557
1022 1012 1027 1013 4 0 7 -3 7 -7z m-1710 -4753 c387 -1513 685 -2656 786
-3019 91 -321 163 -586 161 -588 -2 -2 -67 70 -143 159 -77 90 -921 1041
-1877 2115 -956 1074 -1738 1955 -1738 1959 -1 11 2176 1822 2182 1815 3 -3
286 -1102 629 -2441z m5950 1533 c593 -494 1079 -901 1079 -905 1 -4 -787
-893 -1750 -1975 -963 -1082 -1830 -2063 -1927 -2180 -96 -117 -177 -212 -178
-210 -2 1 374 1392 834 3090 649 2397 839 3086 850 3082 7 -3 499 -409 1092
-902z m-5718 177 c514 -597 567 -655 597 -658 22 -2 116 26 292 89 142 51 261
90 263 88 3 -2 -171 -652 -386 -1444 l-391 -1440 147 -441 c81 -243 152 -448
159 -456 7 -9 206 -148 444 -311 394 -268 431 -296 415 -309 -32 -28 -754
-539 -757 -536 -5 5 -1405 6114 -1405 6129 0 7 13 -2 29 -21 16 -19 283 -330
593 -690z m3638 -2391 c-429 -1674 -781 -3047 -783 -3051 -2 -8 -756 553 -757
564 0 3 195 133 434 287 238 155 441 289 449 299 17 18 327 864 327 891 0 9
-158 663 -351 1454 -193 791 -349 1441 -345 1444 3 3 126 -40 272 -97 249 -95
269 -101 295 -88 14 7 298 313 630 680 331 367 604 666 606 665 1 -2 -348
-1373 -777 -3048z m-2270 1072 c55 -315 100 -580 101 -589 0 -9 -108 -233
-240 -497 l-241 -480 84 -569 c78 -525 86 -571 108 -591 35 -34 619 -338 648
-338 29 0 649 302 668 325 13 16 202 1094 202 1151 0 15 -100 237 -225 499
-124 260 -225 478 -225 486 0 15 227 1125 237 1157 3 11 145 -550 330 -1305
l323 -1324 -143 -395 -143 -395 -514 -332 -513 -333 -91 63 c-50 34 -271 186
-491 336 -220 150 -407 280 -416 289 -9 9 -75 192 -147 408 l-130 392 344
1268 c190 697 349 1287 356 1311 6 23 12 41 14 39 3 -2 49 -262 104 -576z"/>
</g>
</svg>
